<svg width="256" height="188" viewBox="0 0 256 188" fill="none" xmlns="http://www.w3.org/2000/svg">
<g clip-path="url(#clip0)">
<path d="M30.5717 80.0249C30.0103 80.0249 29.4433 80.016 28.8867 79.9987L28.8994 79.5967C29.6986 79.6214 30.5142 79.6283 31.3171 79.6173L31.3227 80.0198C31.0727 80.0231 30.8224 80.0248 30.5717 80.0249Z" fill="#3F3D56"/>
<path d="M33.7571 79.9315L33.7334 79.5299C34.5338 79.4829 35.3445 79.4169 36.1429 79.3337L36.1852 79.7338C35.3806 79.8177 34.5638 79.8844 33.7571 79.9315Z" fill="#3F3D56"/>
<path d="M26.4541 79.8688C25.647 79.8073 24.8314 79.7268 24.0298 79.6289L24.0792 79.2296C24.8746 79.3265 25.6839 79.4067 26.4849 79.4676L26.4541 79.8688Z" fill="#3F3D56"/>
<path d="M38.6012 79.4264L38.5405 79.0287C39.3358 78.9086 40.1372 78.7693 40.9217 78.6143L41.0006 79.0088C40.2099 79.1651 39.4026 79.3056 38.6012 79.4264Z" fill="#3F3D56"/>
<path d="M21.6196 79.2792C20.8223 79.1448 20.0175 78.9904 19.2275 78.8198L19.3134 78.4264C20.0973 78.5958 20.8959 78.7491 21.6872 78.8823L21.6196 79.2792Z" fill="#3F3D56"/>
<path d="M43.3789 78.482L43.2817 78.0913C44.0624 77.8993 44.8474 77.6871 45.615 77.4607L45.7299 77.8466C44.9564 78.0748 44.1655 78.2886 43.3789 78.482Z" fill="#3F3D56"/>
<path d="M16.8594 78.2513C16.0772 78.0444 15.2902 77.8168 14.52 77.5745L14.6419 77.1909C15.4063 77.4312 16.1873 77.657 16.9633 77.8622L16.8594 78.2513Z" fill="#3F3D56"/>
<path d="M48.0488 77.104L47.916 76.7239C48.6735 76.462 49.4354 76.1788 50.1809 75.8821L50.331 76.2558C49.58 76.5547 48.8122 76.84 48.0488 77.104Z" fill="#3F3D56"/>
<path d="M12.2086 76.7888C11.449 76.5111 10.6847 76.2115 9.93701 75.8982L10.0941 75.5272C10.836 75.8381 11.5944 76.1354 12.3483 76.4111L12.2086 76.7888Z" fill="#3F3D56"/>
<path d="M52.5665 75.3061L52.3989 74.9398C53.1264 74.611 53.8576 74.2601 54.5723 73.8967L54.7564 74.2552C54.0363 74.6212 53.2995 74.9748 52.5665 75.3061Z" fill="#3F3D56"/>
<path d="M56.8957 73.105L56.6953 72.7556C57.393 72.3597 58.0894 71.9435 58.765 71.5184L58.9811 71.8584C58.3004 72.2868 57.5988 72.7063 56.8957 73.105Z" fill="#3F3D56"/>
<path d="M61.0074 70.5178L60.7759 70.1881C61.4328 69.7316 62.0884 69.2535 62.7244 68.7673L62.971 69.0865C62.3302 69.5764 61.6695 70.058 61.0074 70.5178Z" fill="#3F3D56"/>
<path d="M64.8673 67.5675L64.6064 67.2598C65.2187 66.7459 65.8281 66.2104 66.4179 65.6681L66.6925 65.9636C66.0984 66.5101 65.4843 67.0497 64.8673 67.5675Z" fill="#3F3D56"/>
<path d="M68.4429 64.2783L68.1548 63.9957C68.7193 63.4268 69.2776 62.838 69.8141 62.246L70.1148 62.5152C69.5742 63.112 69.0117 63.705 68.4429 64.2783Z" fill="#3F3D56"/>
<path d="M71.7042 60.678L71.3916 60.4225C71.9016 59.8053 72.4036 59.1684 72.8843 58.5292L73.2083 58.7701C72.7241 59.4142 72.2181 60.0562 71.7042 60.678Z" fill="#3F3D56"/>
<path d="M74.6233 56.7957L74.2886 56.5697C74.7398 55.9089 75.1818 55.2288 75.6021 54.5479L75.947 54.7585C75.5232 55.4445 75.0779 56.1299 74.6233 56.7957Z" fill="#3F3D56"/>
<path d="M77.1758 52.6626L76.8218 52.4681C77.2102 51.7689 77.5876 51.0509 77.9438 50.3339L78.3066 50.5123C77.9478 51.2346 77.5672 51.9582 77.1758 52.6626Z" fill="#3F3D56"/>
<path d="M79.3365 48.312L78.9658 48.1504C79.2883 47.4181 79.5979 46.668 79.8861 45.9213L80.2639 46.0655C79.9735 46.8181 79.6613 47.5739 79.3365 48.312Z" fill="#3F3D56"/>
<path d="M81.0862 43.7781L80.7021 43.6515C80.9547 42.8948 81.1929 42.1213 81.4103 41.3524L81.7999 41.4613C81.5808 42.2361 81.3405 43.0156 81.0862 43.7781Z" fill="#3F3D56"/>
<path d="M82.4054 39.1142L82.0112 39.023C82.1924 38.2474 82.358 37.4553 82.5036 36.6691L82.9015 36.7418C82.7549 37.5343 82.588 38.3323 82.4054 39.1142Z" fill="#3F3D56"/>
<path d="M83.2873 34.3498L82.8862 34.2952C82.9951 33.507 83.087 32.7033 83.1595 31.9062L83.5625 31.9424C83.4894 32.7457 83.3968 33.5555 83.2873 34.3498Z" fill="#3F3D56"/>
<path d="M83.727 29.5253L83.3228 29.5073C83.3587 28.7098 83.3771 27.901 83.3771 27.1034H83.7817C83.7817 27.9071 83.7634 28.722 83.727 29.5253Z" fill="#3F3D56"/>
<path d="M83.116 21.3252C83.0352 20.5318 82.924 20.145 82.8066 19.355L83.2069 19.2963C83.3251 20.0922 83.4264 20.6998 83.508 21.4992L83.116 21.3252Z" fill="#3F3D56"/>
<path d="M82.398 16.9855C82.2437 16.2004 82.0697 15.4102 81.8804 14.6367L82.2736 14.5416C82.4642 15.321 82.6397 16.1173 82.7952 16.9083L82.398 16.9855Z" fill="#3F3D56"/>
<path d="M81.2548 12.3142C81.0292 11.548 80.7826 10.7772 80.522 10.023L80.9045 9.89209C81.1673 10.6521 81.4158 11.429 81.6432 12.201L81.2548 12.3142Z" fill="#3F3D56"/>
<path d="M79.6834 7.76765C79.3882 7.02702 79.072 6.28373 78.7437 5.55833L79.1127 5.39307C79.4437 6.12407 79.7622 6.87306 80.0595 7.61929L79.6834 7.76765Z" fill="#3F3D56"/>
<path d="M77.7029 3.3933C77.3408 2.68282 76.9571 1.97088 76.5625 1.27751L76.9146 1.07922C77.3123 1.778 77.6988 2.49535 78.0637 3.21132L77.7029 3.3933Z" fill="#3F3D56"/>
<path d="M70.4991 127.085C76.0149 133.402 75.9942 142.403 75.9942 142.403C75.9942 142.403 67.0305 141.162 61.5146 134.845C55.9988 128.529 56.0195 119.528 56.0195 119.528C56.0195 119.528 64.9832 120.768 70.4991 127.085Z" fill="#3F3D56"/>
<path d="M63.3628 76.7535C65.7929 84.7633 73.4589 89.5471 73.4589 89.5471C73.4589 89.5471 77.1852 81.3445 74.7551 73.3347C72.3251 65.325 64.6591 60.5411 64.6591 60.5411C64.6591 60.5411 60.9328 68.7437 63.3628 76.7535Z" fill="#074EE8"/>
<path d="M66.5394 74.926C72.7339 80.5865 73.73 89.5327 73.73 89.5327C73.73 89.5327 64.6829 89.3015 58.4885 83.641C52.294 77.9804 51.2979 69.0342 51.2979 69.0342C51.2979 69.0342 60.3449 69.2654 66.5394 74.926Z" fill="#3F3D56"/>
<path d="M86.0929 98.5196C79.3505 103.522 77.4424 112.321 77.4424 112.321C77.4424 112.321 86.466 113.008 93.2085 108.006C99.951 103.003 101.859 94.2041 101.859 94.2041C101.859 94.2041 92.8354 93.5167 86.0929 98.5196Z" fill="#3F3D56"/>
<path d="M90.6241 164.895C90.6241 164.895 90.5646 164.972 90.4457 165.111H66.8394C69.173 163.547 71.793 162.455 74.5504 161.896C82.8174 160.343 90.6241 164.895 90.6241 164.895Z" fill="#3F3D56"/>
<path d="M76.0141 140.609C75.9857 140.751 75.9546 140.892 75.9236 141.034C75.8952 141.172 75.8641 141.311 75.8331 141.45C75.7685 141.749 75.7012 142.047 75.6314 142.345C73.7678 150.48 70.4008 158.2 65.7017 165.111H64.7656C69.3969 158.496 72.8852 150.691 74.8737 142.193C74.9306 141.947 74.9875 141.7 75.0418 141.45C75.1168 141.118 75.1866 140.787 75.2565 140.455C75.3832 139.848 75.5021 139.238 75.6133 138.624C78.1888 124.512 77.1157 108.387 72.3474 89.4223C72.2801 89.1548 72.2103 88.8847 72.1431 88.6147C72.1327 88.5813 72.125 88.5504 72.1172 88.517L72.8671 88.3267C72.9525 88.6584 73.0378 88.9902 73.1179 89.322L73.1645 89.4994C78.1112 109.287 79.0421 126.017 76.0141 140.609Z" fill="#3F3D56"/>
<path d="M52.9016 64.3646C56.9561 64.3646 60.243 61.0956 60.243 57.063C60.243 53.0304 56.9561 49.7614 52.9016 49.7614C48.847 49.7614 45.5601 53.0304 45.5601 57.063C45.5601 61.0956 48.847 64.3646 52.9016 64.3646Z" fill="#3F3D56"/>
<path d="M185.895 139.469C181.279 144.515 181.125 151.852 181.125 151.852C181.125 151.852 188.455 151.009 193.071 145.964C197.688 140.918 197.842 133.581 197.842 133.581C197.842 133.581 190.511 134.424 185.895 139.469Z" fill="#3F3D56"/>
<path d="M192.667 98.5757C190.535 105.059 184.195 108.815 184.195 108.815C184.195 108.815 181.313 102.058 183.446 95.5749C185.579 89.0914 191.919 85.3359 191.919 85.3359C191.919 85.3359 194.8 92.0922 192.667 98.5757Z" fill="#074EE8"/>
<path d="M190.113 97.0264C184.956 101.524 183.975 108.798 183.975 108.798C183.975 108.798 191.354 108.779 196.511 104.282C201.667 99.7838 202.649 92.51 202.649 92.51C202.649 92.51 195.27 92.5286 190.113 97.0264Z" fill="#3F3D56"/>
<path d="M173.726 115.891C179.127 120.096 180.516 127.304 180.516 127.304C180.516 127.304 173.147 127.695 167.746 123.49C162.345 119.285 160.957 112.077 160.957 112.077C160.957 112.077 168.325 111.687 173.726 115.891Z" fill="#3F3D56"/>
<path d="M186.684 165.111H185.98C183.908 160.885 182.377 156.417 181.421 151.812C181.346 151.455 181.274 151.097 181.207 150.734C181.184 150.621 181.163 150.506 181.142 150.39C180.605 147.436 180.267 144.449 180.131 141.45C179.663 131.736 181.09 120.955 184.437 108.783C184.449 108.734 184.462 108.685 184.478 108.636C184.55 108.369 184.625 108.101 184.7 107.831L185.308 108.001C185.3 108.027 185.295 108.05 185.287 108.076C185.225 108.297 185.163 108.515 185.104 108.734C181.729 120.945 180.291 131.739 180.762 141.45C180.876 143.902 181.125 146.347 181.507 148.772C181.587 149.276 181.672 149.778 181.763 150.277C181.851 150.752 181.944 151.227 182.042 151.701C183.007 156.35 184.567 160.857 186.684 165.111Z" fill="#3F3D56"/>
<path d="M201.569 88.6749C204.875 88.6749 207.555 86.0094 207.555 82.7214C207.555 79.4334 204.875 76.7679 201.569 76.7679C198.263 76.7679 195.583 79.4334 195.583 82.7214C195.583 86.0094 198.263 88.6749 201.569 88.6749Z" fill="#3F3D56"/>
<path d="M136.973 136.137L136.802 141.45L136.047 165.111H114.078L111.846 141.45L110.745 129.759L104.916 110.63L142.801 103.094C142.801 103.094 145.716 114.109 146.879 122.223C148.046 130.34 136.973 136.137 136.973 136.137Z" fill="#2F2E41"/>
<path opacity="0.2" d="M136.973 136.137L136.802 141.45L136.047 165.111H114.078L111.846 141.45L110.745 129.759L104.916 110.63L142.801 103.094C142.801 103.094 145.716 114.109 146.879 122.223C148.046 130.34 136.973 136.137 136.973 136.137Z" fill="black"/>
<path d="M252.897 165.111H0V3.08618L40.9445 29.3188H40.598V141.45H215.919V141.419L252.897 165.111Z" fill="#074EE8"/>
<path d="M3.10303 0L48.8652 29.3188H215.919V136.346L256 162.025V0H3.10303Z" fill="#3F3D56"/>
<path d="M145.091 6.25403H145.091C133.463 6.25403 124.037 16.6587 124.037 29.4934V45.8001H129.079L131.999 39.7584L131.269 45.8001H163.68L166.334 40.3076L165.671 45.8001H169.32V32.9965C169.32 18.227 158.473 6.25403 145.091 6.25403Z" fill="#2F2E41"/>
<path d="M125.315 81.646L121.818 94.9787L154.458 93.8193L153.875 82.8053C153.875 82.8053 129.395 76.4288 125.315 81.646Z" fill="#FFB9B9"/>
<path d="M93.8418 134.977L104.333 158.164L114.241 145.991L106.082 129.759L93.8418 134.977Z" fill="#FFB9B9"/>
<path d="M141.052 42.2276C148.456 42.2276 154.457 36.2584 154.457 28.8949C154.457 21.5315 148.456 15.5623 141.052 15.5623C133.648 15.5623 127.646 21.5315 127.646 28.8949C127.646 36.2584 133.648 42.2276 141.052 42.2276Z" fill="#FFB9B9"/>
<path d="M160.869 46.2852L154.702 51.398L153.875 52.0821L153.292 59.0382H130.561C130.561 59.0382 133.662 56.3659 136.541 53.6008C136.599 53.5371 136.663 53.4675 136.733 53.4037C137.124 53.0269 137.474 52.6791 137.788 52.3661C137.957 52.1922 138.121 52.0299 138.266 51.8791C138.505 51.6299 138.738 51.3922 138.971 51.1545C138.975 51.1514 138.977 51.1474 138.977 51.143C139.574 50.5221 140.134 49.8679 140.656 49.1836L140.662 49.1778C140.802 48.9933 140.932 48.8018 141.052 48.604C142.801 45.7056 138.721 39.9087 138.721 39.9087L151.543 33.5322C151.992 39.816 157.337 44.0129 159.727 45.5896C160.426 46.0475 160.869 46.2852 160.869 46.2852Z" fill="#FFB9B9"/>
<path d="M192.342 143.672C183.6 145.991 183.017 128.6 183.017 128.6L171.085 104.865C168.563 99.8495 166.829 94.4795 165.944 88.9418L163.2 71.7914L162.367 72.7827V72.7885L160.869 73.5305L151.765 59.0384L149.212 54.9807V50.3432L157.955 46.2854H161.452C161.452 46.2854 161.527 46.2738 161.661 46.2622C163.27 46.0941 173.738 45.3985 174.274 55.5604C174.485 59.5486 174.467 62.8527 174.358 65.4453C174.026 72.6178 174.71 79.8011 176.391 86.784C177.008 89.3017 177.681 91.4883 178.354 92.66C180.686 96.7178 188.845 128.6 188.845 128.6C188.845 128.6 201.085 141.353 192.342 143.672Z" fill="#FFB9B9"/>
<path d="M138.721 52.6619L136.512 56.6675L135.206 59.0384L128.812 70.6321C128.812 70.6321 127 72.1044 124.062 74.0058C119.178 77.1651 111.17 81.5011 103.167 82.2257C90.3444 83.3851 102.584 42.2277 102.584 42.2277C102.584 42.2277 106.664 25.9966 112.493 27.7356C118.321 29.4747 113.658 35.2715 109.578 46.2854C105.498 57.2994 108.996 69.4727 108.996 69.4727C108.996 69.4727 121.235 61.9369 127.647 56.14C130.986 53.1199 133.854 52.3025 135.83 52.2156H135.836C136.49 52.1798 137.147 52.2305 137.788 52.3663C138.109 52.4301 138.422 52.5293 138.721 52.6619Z" fill="#FFB9B9"/>
<path d="M140.656 49.1838C140.632 49.2476 140.359 49.7635 138.266 51.8793C139.12 51.0327 139.918 50.1323 140.656 49.1838Z" fill="#D0CDE1"/>
<path d="M162.909 72.0812L162.367 72.7884L153.875 87.4428C153.875 87.4428 142.801 83.385 134.641 82.2256C126.714 81.101 123.188 87.0834 122.99 87.4254L125.315 78.1679L124.062 74.0057C123.916 73.5188 123.747 72.9797 123.567 72.371C121.818 66.5742 128.23 60.1977 128.23 60.1977L135.83 52.2155H135.836C136.49 52.1797 137.147 52.2304 137.788 52.3662C137.473 52.6792 137.124 53.0271 136.733 53.4038C136.663 53.4676 136.599 53.5372 136.541 53.6009C134.309 55.8675 135.468 56.4993 136.512 56.6674C136.857 56.7201 137.206 56.7376 137.555 56.7196C139.986 57.0674 145.307 54.9458 149.212 53.172C151.87 51.9662 153.875 50.9228 153.875 50.9228L158.963 46.2853L159.727 45.5897C160.426 46.0477 160.869 46.2853 160.869 46.2853H161.452C161.452 46.2853 161.528 46.2737 161.662 46.2621L159.008 48.2207C157.686 49.196 156.631 50.4844 155.938 51.9688C155.245 53.4532 154.937 55.0863 155.04 56.7196L162.909 72.0812Z" fill="#D0CDE1"/>
<path d="M131.143 88.6021L122.622 91.9116C122.622 91.9116 76.356 74.1101 69.3618 88.6021C62.3676 103.094 93.8413 137.875 93.8413 137.875L107.83 131.499L102.001 114.108C102.001 114.108 135.806 142.513 149.795 126.861C163.783 111.21 154.457 89.0791 154.457 89.0791C154.457 89.0791 145.715 82.2256 131.143 88.6021Z" fill="#2F2E41"/>
<path d="M106.665 151.787L101.419 155.845C101.419 155.845 106.082 174.395 104.333 177.293C102.585 180.192 99.0876 188.307 105.499 187.728C111.91 187.148 118.904 177.293 119.487 173.815C120.07 170.337 124.15 159.903 124.15 159.903C124.15 159.903 131.144 143.672 125.898 143.092C120.653 142.512 112.298 142.125 112.298 142.125L106.665 151.787Z" fill="#2F2E41"/>
<path d="M151.077 12.6557C148.963 9.94841 145.845 8.23364 142.364 8.23364H141.951C133.981 8.23364 127.52 15.4065 127.52 24.2546V24.2546H130.191L130.622 20.9896L131.254 24.2546H147.093L148.42 21.4924L148.088 24.2546H151.204C152.658 31.4364 150.569 38.6183 144.937 45.8001H150.245L152.899 40.2756L152.235 45.8001H162.353L164.344 33.0937C164.344 23.5779 158.785 15.5086 151.077 12.6557Z" fill="#2F2E41"/>
<path d="M183.079 187.486H48.6143V188H183.079V187.486Z" fill="#3F3D56"/>
</g>
<defs>
<clipPath id="clip0">
<rect width="256" height="188" fill="white"/>
</clipPath>
</defs>
</svg>
