<svg width="283" height="141" viewBox="0 0 283 141" fill="none" xmlns="http://www.w3.org/2000/svg">
<g clip-path="url(#clip0)">
<path d="M141.5 0C63.7205 0 0.600266 63.0251 0 141H283C282.4 63.0251 219.28 0 141.5 0Z" fill="#2F2E41"/>
<path d="M134.191 16.1306C134.962 16.1306 135.586 15.5031 135.586 14.729C135.586 13.9549 134.962 13.3274 134.191 13.3274C133.42 13.3274 132.795 13.9549 132.795 14.729C132.795 15.5031 133.42 16.1306 134.191 16.1306Z" fill="#F2F2F2"/>
<path d="M90.3712 61.5422C90.6795 61.5422 90.9294 61.2912 90.9294 60.9815C90.9294 60.6719 90.6795 60.4209 90.3712 60.4209C90.0629 60.4209 89.813 60.6719 89.813 60.9815C89.813 61.2912 90.0629 61.5422 90.3712 61.5422Z" fill="#F2F2F2"/>
<path d="M172.708 87.892C173.016 87.892 173.266 87.641 173.266 87.3314C173.266 87.0218 173.016 86.7708 172.708 86.7708C172.399 86.7708 172.149 87.0218 172.149 87.3314C172.149 87.641 172.399 87.892 172.708 87.892Z" fill="#F2F2F2"/>
<path d="M27.2931 80.8841C27.6014 80.8841 27.8513 80.6331 27.8513 80.3235C27.8513 80.0138 27.6014 79.7628 27.2931 79.7628C26.9848 79.7628 26.7349 80.0138 26.7349 80.3235C26.7349 80.6331 26.9848 80.8841 27.2931 80.8841Z" fill="#F2F2F2"/>
<path d="M244.996 60.9815C245.304 60.9815 245.554 60.7305 245.554 60.4209C245.554 60.1112 245.304 59.8602 244.996 59.8602C244.688 59.8602 244.438 60.1112 244.438 60.4209C244.438 60.7305 244.688 60.9815 244.996 60.9815Z" fill="#F2F2F2"/>
<path d="M65.8099 66.8682C66.1182 66.8682 66.3681 66.6172 66.3681 66.3076C66.3681 65.998 66.1182 65.7469 65.8099 65.7469C65.5016 65.7469 65.2517 65.998 65.2517 66.3076C65.2517 66.6172 65.5016 66.8682 65.8099 66.8682Z" fill="#F2F2F2"/>
<path d="M157.357 55.6555C157.665 55.6555 157.915 55.4045 157.915 55.0948C157.915 54.7852 157.665 54.5342 157.357 54.5342C157.049 54.5342 156.799 54.7852 156.799 55.0948C156.799 55.4045 157.049 55.6555 157.357 55.6555Z" fill="#F2F2F2"/>
<path d="M175.778 15.2896C176.086 15.2896 176.336 15.0386 176.336 14.729C176.336 14.4193 176.086 14.1683 175.778 14.1683C175.47 14.1683 175.22 14.4193 175.22 14.729C175.22 15.0386 175.47 15.2896 175.778 15.2896Z" fill="#F2F2F2"/>
<path d="M59.6695 80.884H59.1113V81.1643H59.6695V80.884Z" fill="#F2F2F2"/>
<path d="M76.1368 37.9954H75.5786V38.2757H76.1368V37.9954Z" fill="#F2F2F2"/>
<path d="M116.328 69.9517H115.77V70.232H116.328V69.9517Z" fill="#F2F2F2"/>
<path d="M222.947 82.2856H222.389V82.566H222.947V82.2856Z" fill="#F2F2F2"/>
<path d="M189.733 39.397H189.175V39.6773H189.733V39.397Z" fill="#F2F2F2"/>
<path d="M63.8062 101.946H62.824V140.911H63.8062V101.946Z" fill="#3F3D56"/>
<path d="M72.8706 95.1384C72.9332 108.764 63.3886 119.853 63.3886 119.853C63.3886 119.853 53.7426 108.852 53.6801 95.2272C53.6176 81.6021 63.1622 70.5123 63.1622 70.5123C63.1622 70.5123 72.8081 81.5133 72.8706 95.1384Z" fill="#3F3D56"/>
<path d="M51.6828 90.3948H50.4094V140.911H51.6828V90.3948Z" fill="#3F3D56"/>
<path d="M63.4345 85.0592C63.5155 102.724 51.1414 117.101 51.1414 117.101C51.1414 117.101 38.6359 102.839 38.5548 85.1744C38.4738 67.5101 50.8479 53.1327 50.8479 53.1327C50.8479 53.1327 63.3534 67.3949 63.4345 85.0592Z" fill="#3F3D56"/>
<path d="M199.731 101.946H198.749V140.911H199.731V101.946Z" fill="#074EE8"/>
<path d="M208.796 106.912C208.858 120.537 199.314 131.627 199.314 131.627C199.314 131.627 189.668 120.626 189.605 107.001C189.543 93.3755 199.087 82.2858 199.087 82.2858C199.087 82.2858 208.733 93.2867 208.796 106.912Z" fill="#3F3D56"/>
<path d="M40.3612 101.946H39.379V140.911H40.3612V101.946Z" fill="#3F3D56"/>
<path d="M49.4257 95.1384C49.4882 108.764 39.9436 119.853 39.9436 119.853C39.9436 119.853 30.2977 108.852 30.2352 95.2272C30.1726 81.6021 39.7172 70.5123 39.7172 70.5123C39.7172 70.5123 49.3632 81.5133 49.4257 95.1384Z" fill="#3F3D56"/>
<path d="M126.884 101.946H125.902V140.911H126.884V101.946Z" fill="#3F3D56"/>
<path d="M135.949 95.1384C136.011 108.764 126.467 119.853 126.467 119.853C126.467 119.853 116.821 108.852 116.758 95.2272C116.696 81.6021 126.24 70.5123 126.24 70.5123C126.24 70.5123 135.886 81.5133 135.949 95.1384Z" fill="#3F3D56"/>
<path d="M114.761 90.3948H113.487V140.911H114.761V90.3948Z" fill="#3F3D56"/>
<path d="M126.513 85.0592C126.594 102.724 114.22 117.101 114.22 117.101C114.22 117.101 101.714 102.839 101.633 85.1744C101.552 67.5101 113.926 53.1327 113.926 53.1327C113.926 53.1327 126.432 67.3949 126.513 85.0592Z" fill="#3F3D56"/>
<path d="M103.439 101.946H102.457V140.911H103.439V101.946Z" fill="#3F3D56"/>
<path d="M112.504 95.1384C112.566 108.764 103.022 119.853 103.022 119.853C103.022 119.853 93.3757 108.852 93.3132 95.2272C93.2506 81.6021 102.795 70.5123 102.795 70.5123C102.795 70.5123 112.441 81.5133 112.504 95.1384Z" fill="#3F3D56"/>
<path d="M206.082 120.092L189.669 104.936C189.625 105.617 189.602 106.305 189.605 107.001C189.668 120.626 199.314 131.627 199.314 131.627C202.122 128.137 204.402 124.25 206.082 120.092Z" fill="#074EE8"/>
<path d="M83.9116 137.435C84.474 139.523 86.4001 140.816 86.4001 140.816C86.4001 140.816 87.4145 138.724 86.8521 136.637C86.2898 134.549 84.3637 133.256 84.3637 133.256C84.3637 133.256 83.3493 135.348 83.9116 137.435Z" fill="#3F3D56"/>
<path d="M84.7379 136.987C86.281 138.495 86.4694 140.814 86.4694 140.814C86.4694 140.814 84.1561 140.687 82.6131 139.179C81.0701 137.67 80.8816 135.351 80.8816 135.351C80.8816 135.351 83.1949 135.478 84.7379 136.987Z" fill="#3F3D56"/>
<path d="M163.178 137.435C163.74 139.523 165.666 140.816 165.666 140.816C165.666 140.816 166.681 138.724 166.118 136.637C165.556 134.549 163.63 133.256 163.63 133.256C163.63 133.256 162.616 135.348 163.178 137.435Z" fill="#074EE8"/>
<path d="M164.004 136.987C165.547 138.495 165.736 140.814 165.736 140.814C165.736 140.814 163.422 140.687 161.879 139.179C160.336 137.67 160.148 135.351 160.148 135.351C160.148 135.351 162.461 135.478 164.004 136.987Z" fill="#074EE8"/>
<path d="M21.3917 137.435C21.9541 139.523 23.8802 140.816 23.8802 140.816C23.8802 140.816 24.8946 138.724 24.3322 136.637C23.7699 134.549 21.8438 133.256 21.8438 133.256C21.8438 133.256 20.8294 135.348 21.3917 137.435Z" fill="#3F3D56"/>
<path d="M22.218 136.987C23.7611 138.495 23.9495 140.814 23.9495 140.814C23.9495 140.814 21.6362 140.687 20.0932 139.179C18.5502 137.67 18.3617 135.351 18.3617 135.351C18.3617 135.351 20.675 135.478 22.218 136.987Z" fill="#3F3D56"/>
<path d="M108.107 61.8684L135.044 102.7C135.646 100.225 135.949 97.6862 135.949 95.1385C135.918 88.4944 133.609 82.4751 131.251 78.0503L130.004 78.3613L131.176 77.9122C129.788 75.2824 128.134 72.8028 126.24 70.5124C126.24 70.5124 125.553 71.3113 124.549 72.7422C121.01 61.2133 113.926 53.1327 113.926 53.1327C111.715 55.8527 109.767 58.7777 108.107 61.8684Z" fill="#074EE8"/>
<path opacity="0.1" d="M263.091 139.259C263.304 139.259 263.508 139.174 263.659 139.023C263.809 138.871 263.894 138.666 263.894 138.452C263.894 138.238 263.809 138.033 263.659 137.882C263.508 137.731 263.304 137.646 263.091 137.646H256.487C256.7 138.074 256.735 138.569 256.585 139.023C256.434 139.477 256.11 139.852 255.684 140.066C255.684 140.28 255.769 140.485 255.919 140.636C256.07 140.787 256.274 140.872 256.487 140.872H263.091C263.304 140.872 263.508 140.787 263.659 140.636C263.809 140.485 263.894 140.28 263.894 140.066C263.894 139.852 263.809 139.647 263.659 139.495C263.508 139.344 263.304 139.259 263.091 139.259Z" fill="#F2F2F2"/>
<path d="M247.395 137.595C247.508 141.994 244.859 140.872 241.647 140.872C238.435 140.872 235.786 141.433 235.764 137.595C235.754 135.704 238.387 135.293 241.599 135.293C244.811 135.293 247.347 135.705 247.395 137.595Z" fill="#3F3D56"/>
<path d="M254.909 139.333C254.858 139.305 254.801 139.287 254.743 139.279C254.452 139.233 254.163 139.171 253.878 139.093C253.592 139.015 253.329 138.869 253.112 138.666C253.031 138.57 252.941 138.483 252.843 138.406C252.793 138.368 252.733 138.346 252.67 138.341C252.608 138.337 252.546 138.351 252.491 138.381C252.48 138.39 252.469 138.4 252.46 138.411C252.42 138.384 252.38 138.358 252.34 138.331C252.128 138.191 251.914 138.052 251.699 137.914L251.691 137.909C251.697 137.875 251.697 137.84 251.691 137.806C251.654 137.695 251.578 137.601 251.478 137.54C251.755 137.537 252.033 137.512 252.308 137.483C252.57 137.487 252.824 137.388 253.013 137.206C253.042 137.174 253.059 137.134 253.062 137.092C253.063 137.005 252.973 136.948 252.893 136.915C252.786 136.871 252.675 136.838 252.562 136.816C252.483 136.805 252.404 136.789 252.327 136.767C252.258 136.742 252.192 136.711 252.129 136.673C251.993 136.598 251.856 136.523 251.72 136.447C251.662 136.419 251.608 136.382 251.562 136.337C251.492 136.263 251.461 136.159 251.391 136.086C251.325 136.019 251.061 135.931 251.024 136.068C251.009 136.122 251.066 136.182 251.073 136.243C250.981 136.185 250.887 136.133 250.789 136.086C250.795 136.074 250.802 136.063 250.806 136.051C250.353 135.686 249.994 135.218 249.757 134.686C249.797 134.687 249.838 134.69 249.879 134.689C249.948 134.696 250.017 134.679 250.075 134.641C250.099 134.619 250.118 134.592 250.13 134.562C250.142 134.531 250.147 134.499 250.145 134.466C250.14 134.401 250.124 134.337 250.098 134.277C250.04 134.098 249.948 133.932 249.826 133.788C249.708 133.674 249.574 133.578 249.428 133.504L249.405 133.491C249.395 133.46 249.386 133.43 249.374 133.4C249.285 133.216 249.186 133.038 249.075 132.867C248.919 132.58 248.804 132.273 248.734 131.954C248.708 131.76 248.634 131.575 248.518 131.417C248.305 131.181 247.94 131.187 247.625 131.223C247.445 131.243 247.266 131.27 247.088 131.298C247.086 131.294 247.086 131.289 247.084 131.284C247.062 131.242 247.048 131.196 247.043 131.148C247.048 131.109 247.056 131.071 247.068 131.034C247.078 130.988 247.076 130.94 247.062 130.895C247.049 130.849 247.024 130.808 246.99 130.775C246.983 130.768 246.975 130.76 246.968 130.752C246.988 130.706 247.006 130.659 247.022 130.611C247.037 130.594 247.048 130.573 247.055 130.551C247.062 130.53 247.064 130.506 247.061 130.484C247.094 130.369 247.111 130.25 247.112 130.131C247.076 129.867 247.066 129.6 247.084 129.334C247.075 129.268 247.051 129.206 247.014 129.15C247.008 129.141 246.997 129.137 246.99 129.129C247.044 129.057 247.107 128.991 247.177 128.934C247.314 128.827 247.462 128.734 247.616 128.654C247.653 128.634 247.705 128.619 247.741 128.596C247.795 128.605 247.85 128.611 247.905 128.612C248.109 128.614 248.311 128.565 248.492 128.47C248.674 128.374 248.829 128.236 248.945 128.067C249.061 127.898 249.134 127.702 249.157 127.498C249.18 127.294 249.154 127.087 249.079 126.896C249.136 126.882 249.189 126.857 249.236 126.822C249.283 126.788 249.323 126.744 249.353 126.693C249.414 126.586 249.451 126.467 249.46 126.344C249.47 126.297 249.47 126.248 249.461 126.201C249.452 126.154 249.434 126.108 249.408 126.068C249.361 126.022 249.307 125.984 249.248 125.956C249.167 125.905 249.098 125.836 249.049 125.753C249.013 125.695 248.988 125.631 248.956 125.57C248.904 125.458 248.821 125.363 248.719 125.294C248.616 125.226 248.496 125.187 248.373 125.182C248.255 125.197 248.139 125.22 248.025 125.251C247.635 125.32 247.21 125.113 246.847 125.274C246.758 125.318 246.675 125.374 246.601 125.44C246.499 125.524 246.401 125.613 246.307 125.707C246.225 125.777 246.163 125.867 246.127 125.969C246.078 126.155 246.195 126.362 246.121 126.539C246.095 126.59 246.065 126.638 246.03 126.683C245.948 126.804 246.037 127.277 246.028 127.423C246.017 127.495 246.036 127.567 246.078 127.626C246.089 127.637 246.102 127.646 246.115 127.654C245.507 127.872 244.913 128.125 244.334 128.414C243.64 128.751 243.064 129.291 242.682 129.964C242.584 130.156 242.51 130.359 242.421 130.556C242.302 130.818 242.159 131.068 242.016 131.318C241.842 131.623 241.667 131.928 241.465 132.215C241.35 132.367 241.244 132.525 241.147 132.69C241.144 132.713 241.143 132.737 241.144 132.761C241.148 132.784 241.146 132.807 241.138 132.829C241.129 132.841 241.118 132.852 241.105 132.859C241.091 132.867 241.077 132.872 241.062 132.873L241.057 132.885C241.011 133.033 240.974 133.182 240.944 133.334C240.884 133.575 240.789 133.807 240.753 134.053C240.731 134.083 240.72 134.12 240.719 134.157C240.718 134.194 240.728 134.231 240.748 134.263C240.768 134.295 240.796 134.32 240.83 134.335C240.864 134.351 240.902 134.356 240.938 134.35C241.147 134.444 241.349 134.553 241.55 134.663C241.547 134.678 241.542 134.693 241.54 134.708C241.534 134.864 241.571 135.019 241.648 135.154C241.726 135.29 241.84 135.401 241.977 135.474C242.254 135.616 242.557 135.699 242.868 135.717C242.988 135.732 243.11 135.738 243.23 135.751C243.406 135.849 243.594 135.925 243.788 135.978C243.831 135.99 243.874 135.997 243.919 135.998C243.978 135.994 244.035 135.977 244.087 135.948C244.139 135.919 244.183 135.878 244.217 135.829C245.255 135.887 246.296 135.866 247.33 135.766C247.617 135.699 247.918 135.746 248.17 135.896C248.395 136.08 248.44 136.404 248.607 136.642C248.728 136.788 248.864 136.921 249.013 137.039C249.308 137.354 249.57 137.698 249.792 138.068C250.017 138.442 250.343 138.744 250.731 138.939C250.801 138.827 250.903 138.738 251.023 138.684C251.054 138.666 251.083 138.644 251.114 138.624C251.155 138.691 251.203 138.754 251.257 138.811C251.297 138.854 251.336 138.9 251.374 138.947C251.372 138.947 251.371 138.947 251.37 138.947C251.316 138.956 251.298 139.024 251.292 139.079C251.268 139.289 251.244 139.499 251.22 139.709C251.211 139.751 251.214 139.794 251.228 139.834C251.254 139.877 251.294 139.91 251.341 139.928C251.535 140.021 251.745 140.077 251.96 140.092C252.068 140.099 252.177 140.096 252.285 140.106C252.462 140.129 252.637 140.164 252.81 140.211C253.279 140.318 253.761 140.356 254.241 140.324C254.34 140.321 254.438 140.302 254.531 140.268C254.641 140.215 254.739 140.139 254.817 140.046C254.918 139.95 254.992 139.831 255.033 139.699C255.052 139.632 255.051 139.562 255.029 139.496C255.007 139.431 254.965 139.374 254.909 139.333Z" fill="#3F3D56"/>
<path d="M247.188 125.251C247.235 125.243 247.28 125.231 247.326 125.219C247.179 125.2 247.03 125.215 246.889 125.261C246.989 125.27 247.089 125.267 247.188 125.251Z" fill="#FF6584"/>
<path d="M248.119 125.57C248.151 125.631 248.176 125.695 248.211 125.753C248.261 125.836 248.329 125.905 248.411 125.956C248.469 125.984 248.523 126.022 248.57 126.068C248.597 126.108 248.615 126.154 248.624 126.201C248.633 126.248 248.633 126.297 248.623 126.344C248.614 126.467 248.577 126.586 248.516 126.693C248.486 126.744 248.446 126.788 248.399 126.822C248.352 126.857 248.299 126.882 248.242 126.896C248.328 127.1 248.358 127.324 248.328 127.543C248.298 127.763 248.211 127.97 248.074 128.144C247.937 128.318 247.756 128.451 247.55 128.531C247.344 128.61 247.121 128.633 246.903 128.596C246.868 128.619 246.816 128.634 246.779 128.654C246.624 128.734 246.477 128.827 246.34 128.934C246.27 128.991 246.207 129.057 246.152 129.129C246.16 129.137 246.171 129.141 246.177 129.15C246.214 129.205 246.238 129.268 246.247 129.334C246.229 129.6 246.239 129.867 246.275 130.131C246.274 130.25 246.257 130.369 246.224 130.484C246.227 130.506 246.224 130.53 246.218 130.551C246.211 130.573 246.2 130.594 246.185 130.611C246.168 130.659 246.15 130.706 246.131 130.752C246.138 130.76 246.146 130.768 246.153 130.775C246.187 130.808 246.211 130.849 246.225 130.895C246.239 130.94 246.241 130.988 246.231 131.034C246.219 131.071 246.21 131.109 246.206 131.148C246.211 131.196 246.225 131.242 246.247 131.284C246.249 131.289 246.249 131.294 246.251 131.298C246.429 131.27 246.608 131.243 246.788 131.223C246.876 131.212 246.965 131.207 247.054 131.205C247.048 131.187 247.044 131.168 247.043 131.148C247.048 131.109 247.056 131.071 247.068 131.034C247.078 130.988 247.076 130.94 247.062 130.895C247.049 130.849 247.024 130.808 246.99 130.775C246.983 130.768 246.976 130.76 246.968 130.752C246.988 130.706 247.006 130.659 247.022 130.611C247.037 130.594 247.048 130.573 247.055 130.551C247.062 130.53 247.064 130.506 247.062 130.484C247.094 130.369 247.111 130.25 247.113 130.131C247.076 129.867 247.066 129.6 247.084 129.334C247.075 129.268 247.051 129.205 247.015 129.15C247.008 129.141 246.997 129.137 246.99 129.129C247.044 129.057 247.107 128.991 247.177 128.934C247.315 128.827 247.462 128.734 247.616 128.654C247.654 128.634 247.705 128.619 247.741 128.596C247.795 128.605 247.85 128.611 247.905 128.612C248.109 128.614 248.311 128.565 248.493 128.47C248.674 128.374 248.829 128.236 248.945 128.067C249.061 127.898 249.134 127.702 249.157 127.498C249.181 127.294 249.154 127.087 249.079 126.896C249.136 126.882 249.189 126.857 249.236 126.822C249.283 126.788 249.323 126.744 249.353 126.693C249.414 126.586 249.451 126.467 249.46 126.344C249.47 126.297 249.47 126.248 249.461 126.201C249.452 126.153 249.434 126.108 249.408 126.068C249.361 126.022 249.307 125.984 249.248 125.956C249.167 125.905 249.098 125.836 249.049 125.753C249.013 125.695 248.988 125.631 248.956 125.57C248.904 125.458 248.821 125.363 248.719 125.294C248.616 125.226 248.496 125.187 248.373 125.182C248.256 125.197 248.14 125.22 248.026 125.251C247.962 125.262 247.897 125.266 247.832 125.264C247.954 125.338 248.053 125.444 248.119 125.57Z" fill="#FF6584"/>
<path d="M254.91 139.333C254.858 139.305 254.801 139.287 254.743 139.279C254.452 139.233 254.163 139.171 253.878 139.093C253.592 139.015 253.329 138.869 253.112 138.665C253.032 138.57 252.941 138.483 252.843 138.406C252.793 138.368 252.733 138.346 252.671 138.341C252.608 138.337 252.546 138.35 252.491 138.381C252.48 138.39 252.469 138.4 252.46 138.41C252.42 138.384 252.38 138.358 252.34 138.331C252.128 138.191 251.914 138.052 251.7 137.914L251.691 137.909C251.697 137.875 251.697 137.84 251.692 137.806C251.654 137.695 251.578 137.6 251.478 137.54C251.755 137.537 252.033 137.512 252.308 137.483C252.571 137.487 252.824 137.388 253.013 137.206C253.042 137.174 253.059 137.134 253.063 137.092C253.063 137.004 252.973 136.947 252.893 136.914C252.786 136.871 252.675 136.838 252.562 136.816C252.483 136.805 252.404 136.789 252.327 136.767C252.258 136.742 252.192 136.711 252.129 136.673C251.993 136.598 251.857 136.522 251.72 136.447C251.662 136.419 251.609 136.381 251.562 136.337C251.492 136.263 251.462 136.158 251.391 136.086C251.326 136.019 251.062 135.931 251.024 136.068C251.009 136.122 251.066 136.182 251.073 136.242C250.982 136.185 250.887 136.133 250.79 136.086C250.795 136.074 250.802 136.063 250.806 136.051C250.354 135.686 249.994 135.218 249.757 134.686C249.798 134.687 249.838 134.69 249.879 134.689C249.948 134.696 250.017 134.679 250.075 134.641C250.099 134.619 250.118 134.592 250.13 134.562C250.142 134.531 250.147 134.499 250.145 134.466C250.14 134.401 250.124 134.337 250.098 134.277C250.04 134.098 249.948 133.932 249.826 133.788C249.709 133.674 249.574 133.578 249.428 133.504L249.405 133.491C249.395 133.46 249.386 133.43 249.374 133.4C249.286 133.216 249.186 133.038 249.075 132.867C248.919 132.58 248.805 132.273 248.734 131.954C248.708 131.76 248.634 131.575 248.519 131.417C248.305 131.181 247.94 131.187 247.625 131.223C247.555 131.231 247.485 131.243 247.415 131.252C247.517 131.282 247.609 131.339 247.681 131.417C247.796 131.575 247.87 131.76 247.897 131.954C247.967 132.273 248.082 132.58 248.238 132.867C248.349 133.038 248.448 133.216 248.536 133.4C248.548 133.43 248.557 133.46 248.567 133.491L248.591 133.504C248.737 133.578 248.871 133.674 248.989 133.788C249.111 133.932 249.203 134.098 249.261 134.277C249.287 134.337 249.303 134.401 249.308 134.466C249.31 134.499 249.305 134.531 249.293 134.562C249.281 134.592 249.262 134.619 249.238 134.641C249.18 134.679 249.111 134.696 249.041 134.689C249.001 134.69 248.96 134.687 248.92 134.686C249.157 135.218 249.516 135.686 249.969 136.051C249.965 136.063 249.958 136.074 249.952 136.086C250.05 136.133 250.144 136.185 250.235 136.242C250.229 136.182 250.172 136.122 250.187 136.068C250.224 135.931 250.488 136.019 250.553 136.086C250.624 136.158 250.655 136.263 250.725 136.337C250.771 136.381 250.825 136.419 250.883 136.447C251.019 136.522 251.156 136.598 251.292 136.673C251.355 136.711 251.421 136.742 251.49 136.767C251.567 136.789 251.645 136.805 251.725 136.816C251.838 136.838 251.949 136.871 252.056 136.914C252.136 136.947 252.226 137.004 252.225 137.092C252.222 137.134 252.205 137.174 252.176 137.206C251.987 137.388 251.733 137.487 251.471 137.483C251.196 137.512 250.918 137.537 250.641 137.54C250.741 137.6 250.817 137.695 250.854 137.806C250.86 137.84 250.86 137.875 250.854 137.909L250.862 137.914C251.077 138.052 251.291 138.191 251.503 138.331C251.543 138.357 251.583 138.384 251.623 138.41C251.632 138.4 251.643 138.39 251.654 138.381C251.709 138.35 251.771 138.337 251.833 138.341C251.896 138.346 251.956 138.368 252.005 138.406C252.104 138.483 252.194 138.57 252.275 138.665C252.492 138.869 252.755 139.015 253.041 139.093C253.326 139.171 253.614 139.233 253.906 139.279C253.964 139.287 254.021 139.305 254.072 139.333C254.128 139.374 254.169 139.431 254.192 139.496C254.214 139.562 254.215 139.632 254.196 139.699C254.155 139.831 254.08 139.95 253.98 140.045C253.902 140.139 253.804 140.215 253.694 140.268C253.626 140.294 253.554 140.31 253.481 140.315C253.734 140.338 253.988 140.34 254.241 140.323C254.34 140.321 254.438 140.302 254.531 140.268C254.641 140.215 254.739 140.139 254.818 140.045C254.918 139.95 254.992 139.831 255.033 139.699C255.053 139.632 255.051 139.562 255.029 139.496C255.007 139.431 254.965 139.374 254.91 139.333Z" fill="#FF6584"/>
<path d="M250.266 138.631C250.28 138.644 250.294 138.657 250.308 138.669C250.298 138.654 250.286 138.64 250.277 138.624L250.266 138.631Z" fill="#FF6584"/>
<path d="M262.734 136.301C262.734 139.271 261.415 138.452 259.789 138.452C258.163 138.452 256.844 139.271 256.844 136.301C256.844 133.331 259.789 127.697 259.789 127.697C259.789 127.697 262.734 133.331 262.734 136.301Z" fill="#FF6584"/>
<path opacity="0.1" d="M261.128 137.438C261.128 138.788 260.528 138.415 259.789 138.415C259.05 138.415 258.45 138.788 258.45 137.438C258.45 136.088 259.789 133.527 259.789 133.527C259.789 133.527 261.128 136.088 261.128 137.438Z" fill="black"/>
<path d="M263.48 128.366C263.48 128.366 264.092 127.727 264.08 127.1L263.48 128.366Z" fill="#FF6584"/>
<path d="M257.211 123.042C257.211 123.042 256.955 122.193 256.405 121.897L257.211 123.042Z" fill="#FF6584"/>
<path d="M251.07 111.549C251.07 111.549 250.815 110.7 250.265 110.404L251.07 111.549Z" fill="#FF6584"/>
<path d="M258.327 126.966C258.327 126.966 258.072 126.118 257.521 125.822L258.327 126.966Z" fill="#FF6584"/>
<path d="M257.49 113.23C257.49 113.23 257.234 112.382 256.684 112.086L257.49 113.23Z" fill="#FF6584"/>
<path d="M255.815 118.276C255.815 118.276 255.559 117.428 255.009 117.132L255.815 118.276Z" fill="#FF6584"/>
<path d="M262.922 137.055C262.922 137.055 263.534 136.416 263.522 135.79L262.922 137.055Z" fill="#FF6584"/>
<path d="M264.039 132.29C264.039 132.29 264.65 131.651 264.638 131.024L264.039 132.29Z" fill="#FF6584"/>
<path d="M256.396 131.489L249.697 133.731L249.785 133.997L256.484 131.755L256.396 131.489Z" fill="#FF6584"/>
<path d="M255.909 131.756C256.161 132.743 255.739 132.507 255.354 132.587C254.969 132.667 255.044 133.023 254.515 132.046C254.149 131.37 254.686 131.295 255.071 131.215C255.456 131.135 255.738 131.082 255.909 131.756Z" fill="#FF6584"/>
<path opacity="0.1" d="M160.41 77.9165L160.41 77.9162L154.32 72.2924L154.266 72.3062L151.827 70.0796L151.709 70.0451L151.836 69.9966L125.902 46.0482L100.856 22.9194L88.0939 29.7183L87.05 29.9504L102.344 53.1327L160.226 140.872H228.585L160.41 77.9165Z" fill="#F2F2F2"/>
<path d="M93.4414 33.5103C97.6033 33.5103 100.977 30.1218 100.977 25.9418C100.977 21.7617 97.6033 18.3732 93.4414 18.3732C89.2794 18.3732 85.9055 21.7617 85.9055 25.9418C85.9055 30.1218 89.2794 33.5103 93.4414 33.5103Z" fill="#F2F2F2"/>
</g>
<defs>
<clipPath id="clip0">
<rect width="283" height="141" fill="white"/>
</clipPath>
</defs>
</svg>
