<svg width="40" height="40" viewBox="0 0 40 40" fill="none" xmlns="http://www.w3.org/2000/svg">
<path d="M20.0002 3.33334C10.8102 3.33334 3.3335 10.81 3.3335 20C3.3335 29.19 10.8102 36.6667 20.0002 36.6667C29.1902 36.6667 36.6668 29.19 36.6668 20C36.6668 10.81 29.1902 3.33334 20.0002 3.33334ZM20.0002 33.3333C12.6485 33.3333 6.66683 27.3517 6.66683 20C6.66683 12.6483 12.6485 6.66667 20.0002 6.66667C27.3518 6.66667 33.3335 12.6483 33.3335 20C33.3335 27.3517 27.3518 33.3333 20.0002 33.3333Z" fill="#074EE8"/>
<path d="M14.1665 18.3333C15.5472 18.3333 16.6665 17.214 16.6665 15.8333C16.6665 14.4526 15.5472 13.3333 14.1665 13.3333C12.7858 13.3333 11.6665 14.4526 11.6665 15.8333C11.6665 17.214 12.7858 18.3333 14.1665 18.3333Z" fill="#074EE8"/>
<path d="M25.8218 18.31C27.1961 18.31 28.3102 17.1959 28.3102 15.8217C28.3102 14.4474 27.1961 13.3333 25.8218 13.3333C24.4476 13.3333 23.3335 14.4474 23.3335 15.8217C23.3335 17.1959 24.4476 18.31 25.8218 18.31Z" fill="#074EE8"/>
<path d="M20 30C28.3333 30 30 21.6667 30 21.6667H10C10 21.6667 11.6667 30 20 30Z" fill="#074EE8"/>
</svg>
