<svg width="24" height="24" viewBox="0 0 24 24" fill="none" xmlns="http://www.w3.org/2000/svg">
<g opacity="0.74">
<path d="M12.552 8C12.2868 8 12.0324 8.10536 11.8449 8.29289C11.6574 8.48043 11.552 8.73478 11.552 9C11.552 9.26522 11.6574 9.51957 11.8449 9.70711C12.0324 9.89464 12.2868 10 12.552 10H16.552C16.8172 10 17.0716 9.89464 17.2591 9.70711C17.4466 9.51957 17.552 9.26522 17.552 9C17.552 8.73478 17.4466 8.48043 17.2591 8.29289C17.0716 8.10536 16.8172 8 16.552 8H12.552Z" fill="white" fill-opacity="0.5"/>
<path d="M12.552 17C12.2868 17 12.0324 17.1054 11.8449 17.2929C11.6574 17.4804 11.552 17.7348 11.552 18C11.552 18.2652 11.6574 18.5196 11.8449 18.7071C12.0324 18.8946 12.2868 19 12.552 19H16.552C16.8172 19 17.0716 18.8946 17.2591 18.7071C17.4466 18.5196 17.552 18.2652 17.552 18C17.552 17.7348 17.4466 17.4804 17.2591 17.2929C17.0716 17.1054 16.8172 17 16.552 17H12.552Z" fill="white" fill-opacity="0.5"/>
<path d="M12.552 5C12.2868 5 12.0324 5.10536 11.8449 5.29289C11.6574 5.48043 11.552 5.73478 11.552 6C11.552 6.26522 11.6574 6.51957 11.8449 6.70711C12.0324 6.89464 12.2868 7 12.552 7H20.552C20.8172 7 21.0716 6.89464 21.2591 6.70711C21.4466 6.51957 21.552 6.26522 21.552 6C21.552 5.73478 21.4466 5.48043 21.2591 5.29289C21.0716 5.10536 20.8172 5 20.552 5H12.552Z" fill="white" fill-opacity="0.8"/>
<path d="M12.552 14C12.2868 14 12.0324 14.1054 11.8449 14.2929C11.6574 14.4804 11.552 14.7348 11.552 15C11.552 15.2652 11.6574 15.5196 11.8449 15.7071C12.0324 15.8946 12.2868 16 12.552 16H20.552C20.8172 16 21.0716 15.8946 21.2591 15.7071C21.4466 15.5196 21.552 15.2652 21.552 15C21.552 14.7348 21.4466 14.4804 21.2591 14.2929C21.0716 14.1054 20.8172 14 20.552 14H12.552Z" fill="white" fill-opacity="0.8"/>
<path d="M3.448 4.00201C3.18278 4.00201 2.92843 4.10737 2.74089 4.29491C2.55335 4.48244 2.448 4.7368 2.448 5.00201V10.002C2.448 10.2672 2.55335 10.5216 2.74089 10.7091C2.92843 10.8967 3.18278 11.002 3.448 11.002H8.448C8.71321 11.002 8.96757 10.8967 9.1551 10.7091C9.34264 10.5216 9.448 10.2672 9.448 10.002V5.00201C9.448 4.7368 9.34264 4.48244 9.1551 4.29491C8.96757 4.10737 8.71321 4.00201 8.448 4.00201H3.448Z" fill="white"/>
<path d="M3.448 12.998C3.18278 12.998 2.92843 13.1034 2.74089 13.2909C2.55335 13.4784 2.448 13.7328 2.448 13.998V18.998C2.448 19.2632 2.55335 19.5176 2.74089 19.7051C2.92843 19.8927 3.18278 19.998 3.448 19.998H8.448C8.71321 19.998 8.96757 19.8927 9.1551 19.7051C9.34264 19.5176 9.448 19.2632 9.448 18.998V13.998C9.448 13.7328 9.34264 13.4784 9.1551 13.2909C8.96757 13.1034 8.71321 12.998 8.448 12.998H3.448Z" fill="white"/>
</g>
</svg>
