<svg width="40" height="16" viewBox="0 0 40 16" fill="none" xmlns="http://www.w3.org/2000/svg">
<path d="M9.02246 11.8535C9.02246 12.3691 9.03418 12.7764 9.05762 13.0752C9.08691 13.374 9.12793 13.5996 9.18066 13.752C9.23926 13.9043 9.3125 14.001 9.40039 14.042C9.48828 14.083 9.59082 14.1035 9.70801 14.1035C9.86621 14.1035 10.0303 14.0537 10.2002 13.9541C10.3701 13.8545 10.5371 13.7256 10.7012 13.5674C10.8652 13.4092 11.0205 13.2334 11.167 13.04C11.3193 12.8467 11.457 12.6592 11.5801 12.4775C11.709 12.29 11.8174 12.1172 11.9053 11.959C11.999 11.7949 12.0693 11.6689 12.1162 11.5811L12.3887 11.0361L12.749 11.3086L12.4766 11.8535C12.4297 11.9414 12.3535 12.085 12.248 12.2842C12.1426 12.4775 12.0107 12.6943 11.8525 12.9346C11.6943 13.1689 11.5156 13.415 11.3164 13.6729C11.1172 13.9248 10.9033 14.1562 10.6748 14.3672C10.4463 14.5781 10.2061 14.751 9.9541 14.8857C9.70215 15.0205 9.44434 15.0879 9.18066 15.0879C8.94043 15.0879 8.72656 15.0469 8.53906 14.9648C8.35156 14.8828 8.19336 14.7393 8.06445 14.5342C7.93555 14.3232 7.83594 14.0391 7.76562 13.6816C7.70117 13.3184 7.66895 12.8584 7.66895 12.3018C7.66895 12.085 7.67188 11.8799 7.67773 11.6865C7.68945 11.4873 7.7041 11.2471 7.72168 10.9658C7.42285 11.5459 7.07715 12.1055 6.68457 12.6445C6.29785 13.1836 5.88184 13.6611 5.43652 14.0771C4.99121 14.4932 4.52539 14.8242 4.03906 15.0703C3.55859 15.3223 3.07227 15.4482 2.58008 15.4482C2.26953 15.4482 1.97363 15.3926 1.69238 15.2812C1.41113 15.1699 1.16211 15 0.945312 14.7715C0.728516 14.5371 0.555664 14.2383 0.426758 13.875C0.297852 13.5117 0.233398 13.0781 0.233398 12.5742C0.233398 11.7656 0.324219 10.9717 0.505859 10.1924C0.681641 9.41309 0.927734 8.66016 1.24414 7.93359C1.56055 7.20117 1.93262 6.50391 2.36035 5.8418C2.78809 5.17383 3.24805 4.55566 3.74023 3.9873C4.23242 3.41895 4.74805 2.90625 5.28711 2.44922C5.82617 1.98633 6.36523 1.59082 6.9043 1.2627C7.44336 0.93457 7.96777 0.682617 8.47754 0.506836C8.99316 0.331055 9.47363 0.243164 9.91895 0.243164C10.4111 0.243164 10.8037 0.369141 11.0967 0.621094C11.3896 0.867188 11.5361 1.21875 11.5361 1.67578C11.5361 1.98047 11.4746 2.2793 11.3516 2.57227C11.2344 2.85938 11.0762 3.1377 10.877 3.40723C10.6836 3.6709 10.4609 3.92285 10.209 4.16309C9.96289 4.39746 9.71387 4.61133 9.46191 4.80469C9.20996 4.99219 8.96387 5.15918 8.72363 5.30566C8.48926 5.44629 8.28711 5.55762 8.11719 5.63965L7.85352 5.2793C8 5.20312 8.16699 5.09766 8.35449 4.96289C8.54785 4.82813 8.74121 4.66992 8.93457 4.48828C9.12793 4.30664 9.31543 4.10742 9.49707 3.89062C9.68457 3.66797 9.85156 3.43652 9.99805 3.19629C10.1445 2.9502 10.2617 2.69824 10.3496 2.44043C10.4375 2.17676 10.4814 1.91602 10.4814 1.6582C10.4814 1.40625 10.4141 1.19824 10.2793 1.03418C10.1504 0.864258 9.93945 0.779297 9.64648 0.779297C9.30078 0.779297 8.92578 0.870117 8.52148 1.05176C8.11719 1.22754 7.70117 1.47949 7.27344 1.80762C6.8457 2.13574 6.41504 2.52832 5.98145 2.98535C5.55371 3.43652 5.14062 3.9375 4.74219 4.48828C4.34375 5.0332 3.97168 5.61914 3.62598 6.24609C3.28613 6.86719 2.9873 7.51465 2.72949 8.18848C2.47754 8.85645 2.27832 9.53906 2.13184 10.2363C1.98535 10.9277 1.91211 11.6162 1.91211 12.3018C1.91211 12.6182 1.93555 12.9111 1.98242 13.1807C2.0293 13.4443 2.10547 13.6729 2.21094 13.8662C2.31641 14.0537 2.4541 14.2002 2.62402 14.3057C2.79395 14.4111 3.00488 14.4639 3.25684 14.4639C3.57324 14.4639 3.88379 14.3936 4.18848 14.2529C4.49316 14.1064 4.78906 13.9102 5.07617 13.6641C5.36328 13.418 5.63867 13.1309 5.90234 12.8027C6.17188 12.4746 6.42383 12.123 6.6582 11.748C6.89258 11.373 7.10938 10.9893 7.30859 10.5967C7.51367 10.1982 7.69531 9.80566 7.85352 9.41895C7.89453 8.97949 7.94141 8.56055 7.99414 8.16211C8.04688 7.75781 8.09961 7.39746 8.15234 7.08105C8.20508 6.76465 8.25488 6.50391 8.30176 6.29883C8.34863 6.08789 8.38965 5.95898 8.4248 5.91211C8.44824 5.87109 8.49805 5.82422 8.57422 5.77148C8.65039 5.71875 8.73535 5.67188 8.8291 5.63086C8.92871 5.58398 9.02832 5.5459 9.12793 5.5166C9.22754 5.48145 9.3125 5.46387 9.38281 5.46387C9.55859 5.46387 9.64648 5.55176 9.64648 5.72754C9.64648 5.8916 9.63477 6.08203 9.61133 6.29883C9.58789 6.51562 9.55566 6.74121 9.51465 6.97559C9.47363 7.20996 9.42383 7.44727 9.36523 7.6875C9.3125 7.92188 9.25098 8.13867 9.18066 8.33789C9.13379 8.97656 9.0957 9.5918 9.06641 10.1836C9.03711 10.7695 9.02246 11.3262 9.02246 11.8535ZM13.7246 15C13.4551 15 13.2295 14.9238 13.0479 14.7715C12.8721 14.6133 12.7314 14.4023 12.626 14.1387C12.5205 13.875 12.4443 13.5732 12.3975 13.2334C12.3564 12.8877 12.3359 12.5273 12.3359 12.1523C12.3359 11.5605 12.3594 11.0273 12.4062 10.5527C12.4531 10.0781 12.5088 9.6709 12.5732 9.33105C12.6377 8.98535 12.7021 8.71582 12.7666 8.52246C12.8311 8.32324 12.8779 8.20312 12.9072 8.16211C12.9482 8.10938 13.001 8.05957 13.0654 8.0127C13.1357 7.96582 13.2061 7.92773 13.2764 7.89844C13.3467 7.86914 13.417 7.8457 13.4873 7.82812C13.5576 7.81055 13.6162 7.80176 13.6631 7.80176C13.7979 7.80176 13.8916 7.82812 13.9443 7.88086C13.9971 7.93359 14.0234 8.02734 14.0234 8.16211C14.0176 8.16211 14.0029 8.22363 13.9795 8.34668C13.9619 8.46387 13.9385 8.625 13.9092 8.83008C13.8799 9.03516 13.8477 9.27539 13.8125 9.55078C13.7773 9.82031 13.7451 10.1074 13.7158 10.4121C13.6924 10.7168 13.6719 11.0273 13.6543 11.3438C13.6367 11.6543 13.6279 11.9561 13.6279 12.249C13.6279 12.5068 13.6367 12.7471 13.6543 12.9697C13.6719 13.1924 13.7012 13.3887 13.7422 13.5586C13.7891 13.7285 13.8447 13.8633 13.9092 13.9629C13.9795 14.0566 14.0674 14.1035 14.1729 14.1035C14.2783 14.1035 14.3779 14.0361 14.4717 13.9014C14.5654 13.7607 14.6533 13.582 14.7354 13.3652C14.8174 13.1426 14.8936 12.8965 14.9639 12.627C15.0342 12.3516 15.0986 12.0762 15.1572 11.8008C15.2158 11.5195 15.2686 11.2559 15.3154 11.0098C15.3682 10.7578 15.4121 10.5469 15.4473 10.377C15.4707 10.2891 15.5146 10.21 15.5791 10.1396C15.6494 10.0635 15.7314 9.99902 15.8252 9.94629C15.9189 9.89355 16.0186 9.85254 16.124 9.82324C16.2295 9.79395 16.3291 9.7793 16.4229 9.7793C16.4932 9.7793 16.54 9.80273 16.5635 9.84961C16.5869 9.89062 16.5986 9.95801 16.5986 10.0518C16.5986 10.5791 16.6309 11.0918 16.6953 11.5898C16.7598 12.0879 16.8506 12.5303 16.9678 12.917C17.0908 13.3037 17.2344 13.6143 17.3984 13.8486C17.5625 14.0771 17.7471 14.1914 17.9521 14.1914C18.0928 14.1914 18.2246 14.1387 18.3477 14.0332C18.4707 13.9219 18.5791 13.7871 18.6729 13.6289C18.7725 13.4648 18.8516 13.292 18.9102 13.1104C18.9746 12.9287 19.0156 12.7676 19.0332 12.627C18.7988 12.5273 18.5791 12.3691 18.374 12.1523C18.1689 11.9297 17.9873 11.6719 17.8291 11.3789C17.6768 11.0801 17.5566 10.7578 17.4688 10.4121C17.3809 10.0664 17.3369 9.71777 17.3369 9.36621C17.3369 9.17285 17.3574 8.98242 17.3984 8.79492C17.4395 8.60742 17.501 8.44043 17.583 8.29395C17.6709 8.14746 17.7793 8.03027 17.9082 7.94238C18.0371 7.84863 18.1895 7.80176 18.3652 7.80176C18.5996 7.80176 18.8018 7.875 18.9717 8.02148C19.1475 8.16797 19.291 8.36719 19.4023 8.61914C19.5195 8.86523 19.6074 9.15234 19.666 9.48047C19.7246 9.80859 19.7539 10.1543 19.7539 10.5176C19.7539 10.7871 19.7363 11.0859 19.7012 11.4141C19.666 11.7422 19.6221 12.0439 19.5693 12.3193H19.7363C20.0293 12.3193 20.2812 12.2139 20.4922 12.0029C20.709 11.792 20.8936 11.5312 21.0459 11.2207L21.1338 11.0361L21.4941 11.3086L21.4062 11.4932C21.2188 11.8623 20.9756 12.1641 20.6768 12.3984C20.3779 12.6328 20.0205 12.75 19.6045 12.75H19.4814C19.3936 13.0664 19.2881 13.3623 19.165 13.6377C19.042 13.9072 18.8984 14.1445 18.7344 14.3496C18.5762 14.5488 18.4004 14.707 18.207 14.8242C18.0137 14.9414 17.8086 15 17.5918 15C17.3398 15 17.1172 14.9502 16.9238 14.8506C16.7363 14.751 16.5723 14.6191 16.4316 14.4551C16.291 14.2852 16.1709 14.0977 16.0713 13.8926C15.9775 13.6816 15.8984 13.4678 15.834 13.251C15.7754 13.0283 15.7285 12.8145 15.6934 12.6094C15.6582 12.3984 15.6318 12.2109 15.6143 12.0469C15.5674 12.2402 15.5176 12.4482 15.4648 12.6709C15.4121 12.8877 15.3506 13.1074 15.2803 13.3301C15.21 13.5469 15.1279 13.7578 15.0342 13.9629C14.9404 14.1621 14.8291 14.3379 14.7002 14.4902C14.5771 14.6426 14.4336 14.7656 14.2695 14.8594C14.1113 14.9531 13.9297 15 13.7246 15ZM17.8467 9.38379C17.8467 9.65332 17.876 9.93164 17.9346 10.2188C17.9932 10.5 18.0781 10.7666 18.1895 11.0186C18.3008 11.2705 18.4326 11.4961 18.585 11.6953C18.7432 11.8945 18.916 12.0469 19.1035 12.1523C19.1094 12.082 19.1152 12 19.1211 11.9062C19.1328 11.8125 19.1387 11.7158 19.1387 11.6162C19.1445 11.5107 19.1475 11.4111 19.1475 11.3174C19.1533 11.2178 19.1562 11.1299 19.1562 11.0537C19.1562 10.7256 19.1357 10.4092 19.0947 10.1045C19.0537 9.79395 18.9951 9.51855 18.9189 9.27832C18.8428 9.03809 18.752 8.84766 18.6465 8.70703C18.541 8.56055 18.4238 8.4873 18.2949 8.4873C18.207 8.4873 18.1338 8.5166 18.0752 8.5752C18.0166 8.62793 17.9697 8.69824 17.9346 8.78613C17.8994 8.87402 17.876 8.9707 17.8643 9.07617C17.8525 9.18164 17.8467 9.28418 17.8467 9.38379ZM26.4688 12.8203C26.4688 13.1543 26.498 13.4355 26.5566 13.6641C26.6152 13.8926 26.7178 14.0068 26.8643 14.0068C26.9521 14.0068 27.0459 13.9658 27.1455 13.8838C27.251 13.7959 27.3711 13.6553 27.5059 13.4619C27.6406 13.2686 27.793 13.0195 27.9629 12.7148C28.1387 12.4043 28.3379 12.0264 28.5605 11.5811L28.8242 11.0361L29.1846 11.3086L28.9209 11.8535C28.6748 12.3457 28.4434 12.7881 28.2266 13.1807C28.0156 13.5674 27.8135 13.8955 27.6201 14.165C27.4268 14.4346 27.2363 14.6426 27.0488 14.7891C26.8672 14.9297 26.6855 15 26.5039 15C26.3105 15 26.1465 14.9473 26.0117 14.8418C25.8828 14.7363 25.7744 14.5928 25.6865 14.4111C25.5986 14.2236 25.5312 14.0098 25.4844 13.7695C25.4375 13.5234 25.4053 13.2627 25.3877 12.9873C25.2471 13.2686 25.0918 13.5322 24.9219 13.7783C24.752 14.0186 24.5732 14.2295 24.3857 14.4111C24.2041 14.5928 24.0137 14.7363 23.8145 14.8418C23.6152 14.9473 23.416 15 23.2168 15C22.9238 15 22.6396 14.9385 22.3643 14.8154C22.0889 14.6924 21.8428 14.5049 21.626 14.2529C21.415 14.001 21.2451 13.6846 21.1162 13.3037C20.9873 12.917 20.9229 12.4629 20.9229 11.9414C20.9229 11.332 21.002 10.7754 21.1602 10.2715C21.3184 9.76172 21.5322 9.3252 21.8018 8.96191C22.0713 8.59277 22.3818 8.30859 22.7334 8.10938C23.085 7.9043 23.4541 7.80176 23.8408 7.80176C24.0752 7.80176 24.292 7.85449 24.4912 7.95996C24.6904 8.06543 24.8633 8.19434 25.0098 8.34668C25.1621 8.49316 25.2881 8.65137 25.3877 8.82129C25.4873 8.98535 25.5547 9.12598 25.5898 9.24316L25.6953 8.39062C25.707 8.2793 25.7598 8.18555 25.8535 8.10938C25.9531 8.0332 26.0615 7.97461 26.1787 7.93359C26.2959 7.88672 26.4102 7.85449 26.5215 7.83691C26.6328 7.81348 26.7119 7.80176 26.7588 7.80176C26.8291 7.80176 26.876 7.81348 26.8994 7.83691C26.9229 7.86035 26.9346 7.90723 26.9346 7.97754C26.9346 8.06543 26.9082 8.24414 26.8555 8.51367C26.8086 8.77734 26.7559 9.11719 26.6973 9.5332C26.6445 9.94336 26.5918 10.4268 26.5391 10.9834C26.4922 11.54 26.4688 12.1523 26.4688 12.8203ZM25.502 10.5C25.502 10.2305 25.4609 9.9668 25.3789 9.70898C25.2969 9.44531 25.1855 9.21387 25.0449 9.01465C24.9043 8.80957 24.7402 8.64551 24.5527 8.52246C24.3711 8.39941 24.1777 8.33789 23.9727 8.33789C23.7207 8.33789 23.4834 8.41113 23.2607 8.55762C23.0439 8.69824 22.8535 8.90039 22.6895 9.16406C22.5312 9.42188 22.4053 9.73535 22.3115 10.1045C22.2178 10.4678 22.1709 10.8691 22.1709 11.3086C22.1709 12.1875 22.3086 12.8584 22.584 13.3213C22.8594 13.7783 23.2256 14.0068 23.6826 14.0068C23.8818 14.0068 24.0869 13.9277 24.2979 13.7695C24.5146 13.6055 24.7109 13.374 24.8867 13.0752C25.0684 12.7705 25.2148 12.4014 25.3262 11.9678C25.4434 11.5342 25.502 11.0449 25.502 10.5ZM28.7363 11.2207L28.8242 11.0361C28.9121 10.8604 28.9912 10.6787 29.0615 10.4912C29.1377 10.3037 29.2021 10.1279 29.2549 9.96387C29.3076 9.79395 29.3486 9.64453 29.3779 9.51562C29.4072 9.38086 29.4277 9.27832 29.4395 9.20801C29.2871 9.19043 29.1406 9.15234 29 9.09375C28.8594 9.03516 28.7363 8.95605 28.6309 8.85645C28.5254 8.75684 28.4434 8.63965 28.3848 8.50488C28.3203 8.37012 28.2881 8.21777 28.2881 8.04785C28.2881 7.91309 28.3115 7.79297 28.3584 7.6875C28.4053 7.58203 28.4697 7.49414 28.5518 7.42383C28.6279 7.35352 28.7158 7.30078 28.8154 7.26562C28.9092 7.22461 29.0088 7.2041 29.1143 7.2041C29.2549 7.2041 29.3779 7.2334 29.4834 7.29199C29.5889 7.35059 29.6768 7.42969 29.7471 7.5293C29.8174 7.62305 29.8701 7.73438 29.9053 7.86328C29.9404 7.98633 29.958 8.11523 29.958 8.25C30.1221 8.25 30.2979 8.22656 30.4854 8.17969C30.6787 8.13281 30.8721 8.08301 31.0654 8.03027C31.2588 7.97168 31.4492 7.91895 31.6367 7.87207C31.8242 7.8252 31.9971 7.80176 32.1553 7.80176C32.29 7.80176 32.3984 7.83105 32.4805 7.88965C32.5625 7.94238 32.6035 8.0332 32.6035 8.16211C32.6035 8.25586 32.5742 8.41113 32.5156 8.62793C32.4629 8.84473 32.3955 9.09668 32.3135 9.38379C32.2314 9.6709 32.1406 9.98438 32.041 10.3242C31.9473 10.6582 31.8594 10.998 31.7773 11.3438C31.6953 11.6836 31.625 12.0146 31.5664 12.3369C31.5137 12.6592 31.4873 12.9463 31.4873 13.1982C31.4873 13.5146 31.5225 13.7285 31.5928 13.8398C31.6631 13.9512 31.7891 14.0068 31.9707 14.0068C32.0469 14.0068 32.1406 13.9746 32.252 13.9102C32.3691 13.8398 32.5098 13.708 32.6738 13.5146C32.8379 13.3154 33.0312 13.0342 33.2539 12.6709C33.4824 12.3018 33.7461 11.8184 34.0449 11.2207L34.1328 11.0361L34.4932 11.3086L34.4053 11.4932C34.0537 12.1963 33.7402 12.7734 33.4648 13.2246C33.1895 13.6758 32.9346 14.0332 32.7002 14.2969C32.4717 14.5605 32.2549 14.7451 32.0498 14.8506C31.8447 14.9502 31.6396 15 31.4346 15C31.0889 15 30.8076 14.8682 30.5908 14.6045C30.374 14.3408 30.2656 13.9336 30.2656 13.3828C30.2656 13.084 30.3066 12.7734 30.3887 12.4512C30.4707 12.1289 30.5732 11.8096 30.6963 11.4932C30.8193 11.1709 30.957 10.8545 31.1094 10.5439C31.2617 10.2334 31.4053 9.94043 31.54 9.66504C31.6807 9.38379 31.8066 9.12305 31.918 8.88281C32.0293 8.64258 32.1084 8.43164 32.1553 8.25L32.1025 8.19727C32.0088 8.19727 31.8828 8.24707 31.7246 8.34668C31.5664 8.44629 31.3877 8.56055 31.1885 8.68945C30.9951 8.8125 30.7871 8.92969 30.5645 9.04102C30.3418 9.15234 30.1162 9.21973 29.8877 9.24316C29.876 9.3252 29.8496 9.44531 29.8086 9.60352C29.7734 9.76172 29.7236 9.9375 29.6592 10.1309C29.5947 10.3242 29.5215 10.5234 29.4395 10.7285C29.3574 10.9336 29.2725 11.127 29.1846 11.3086L29.0967 11.4932L28.7363 11.2207ZM29.167 7.69629C29.1143 7.69629 29.0703 7.71387 29.0352 7.74902C29 7.78418 28.9824 7.8252 28.9824 7.87207C28.9824 7.94238 29 8.00391 29.0352 8.05664C29.0703 8.10352 29.1143 8.14453 29.167 8.17969C29.2197 8.20898 29.2725 8.23242 29.3252 8.25C29.3838 8.26172 29.4336 8.26758 29.4746 8.26758C29.4746 8.10352 29.4482 7.96875 29.3955 7.86328C29.3428 7.75195 29.2666 7.69629 29.167 7.69629ZM36.7256 14.0068C36.9307 14.0068 37.1387 13.9541 37.3496 13.8486C37.5664 13.7432 37.7832 13.5791 38 13.3564C38.2227 13.1338 38.4512 12.8467 38.6855 12.4951C38.9199 12.1377 39.1602 11.7129 39.4062 11.2207L39.4941 11.0361L39.8545 11.3086L39.7666 11.4932C39.4502 12.1201 39.1338 12.6562 38.8174 13.1016C38.5068 13.5469 38.1992 13.9102 37.8945 14.1914C37.5957 14.4727 37.2998 14.6777 37.0068 14.8066C36.7139 14.9355 36.4326 15 36.1631 15C35.7822 15 35.4424 14.9209 35.1436 14.7627C34.8447 14.6045 34.5928 14.3906 34.3877 14.1211C34.1826 13.8457 34.0273 13.5293 33.9219 13.1719C33.8105 12.8086 33.7549 12.4277 33.7549 12.0293C33.7549 11.3965 33.8428 10.8223 34.0186 10.3066C34.1885 9.78516 34.417 9.33984 34.7041 8.9707C34.9971 8.60156 35.3281 8.31445 35.6973 8.10938C36.0664 7.9043 36.4502 7.80176 36.8486 7.80176C37.2529 7.80176 37.5605 7.9043 37.7715 8.10938C37.9883 8.31445 38.0967 8.57227 38.0967 8.88281C38.0967 9.18164 38.0117 9.46289 37.8418 9.72656C37.6719 9.98438 37.4404 10.2393 37.1475 10.4912C36.8604 10.7373 36.5264 10.9834 36.1455 11.2295C35.7646 11.4697 35.3633 11.7188 34.9414 11.9766C34.9824 12.2812 35.0527 12.5596 35.1523 12.8115C35.252 13.0576 35.3779 13.2715 35.5303 13.4531C35.6826 13.6289 35.8584 13.7666 36.0576 13.8662C36.2568 13.96 36.4795 14.0068 36.7256 14.0068ZM36.998 9.14648C36.998 8.91211 36.9336 8.72754 36.8047 8.59277C36.6816 8.45801 36.5293 8.39062 36.3477 8.39062C36.1953 8.39062 36.0342 8.44629 35.8643 8.55762C35.6943 8.66309 35.5391 8.83594 35.3984 9.07617C35.2578 9.31055 35.1406 9.6123 35.0469 9.98145C34.9531 10.3506 34.9062 10.7988 34.9062 11.3262V11.5283C35.1055 11.4229 35.3252 11.2852 35.5654 11.1152C35.8115 10.9395 36.04 10.7461 36.251 10.5352C36.4619 10.3242 36.6377 10.1016 36.7783 9.86719C36.9248 9.62695 36.998 9.38672 36.998 9.14648Z" fill="#074EE8"/>
</svg>
